<?xml version="1.0" standalone="no"?>
<!DOCTYPE svg PUBLIC "-//W3C//DTD SVG 20010904//EN"
 "http://www.w3.org/TR/2001/REC-SVG-20010904/DTD/svg10.dtd">
<svg version="1.0" xmlns="http://www.w3.org/2000/svg"
 width="225.000000pt" height="225.000000pt" viewBox="0 0 225.000000 225.000000"
 preserveAspectRatio="xMidYMid meet">
<metadata>
Created by potrace 1.14, written by Peter Selinger 2001-2017
</metadata>
<g transform="translate(0.000000,225.000000) scale(0.100000,-0.100000)"
fill="#000000" stroke="none">
<path d="M1071 2203 c-50 -58 -76 -121 -66 -160 3 -15 24 -44 46 -65 21 -20
39 -46 39 -57 0 -17 -8 -20 -47 -23 l-48 -3 -3 -197 -2 -197 -250 -3 c-274 -3
-273 -3 -324 -72 -20 -26 -21 -41 -21 -228 0 -180 2 -202 18 -212 12 -8 22 -8
35 0 15 10 17 33 20 200 2 177 4 190 24 211 l21 23 612 0 612 0 21 -23 c21
-23 22 -31 22 -265 l0 -242 -742 0 c-833 0 -780 5 -842 -73 l-31 -39 -3 -191
c-3 -173 -2 -193 14 -204 23 -17 29 -16 48 3 13 13 16 45 16 190 l0 174 29 32
29 33 827 0 827 0 29 -33 29 -32 0 -235 0 -235 -1002 -2 -1003 -3 -3 -34 c-7
-74 53 -172 132 -214 l41 -22 950 0 950 0 41 22 c79 42 139 140 132 214 l-3
34 -77 3 -77 3 -3 249 -3 248 -31 39 c-39 49 -87 73 -146 73 l-47 0 -3 254
c-3 239 -4 256 -24 282 -51 69 -50 69 -324 72 l-250 3 -2 197 -3 197 -47 3
c-40 3 -48 6 -48 23 0 11 18 37 39 57 49 47 58 80 37 135 -18 48 -91 137 -111
137 -7 0 -32 -21 -54 -47z m99 -133 c0 -22 -20 -40 -45 -40 -47 0 -57 37 -23
86 l22 32 23 -31 c13 -17 23 -38 23 -47z m20 -410 l0 -160 -65 0 -65 0 0 160
0 160 65 0 65 0 0 -160z m980 -1459 c0 -15 -45 -74 -73 -95 -28 -21 -30 -21
-972 -21 -942 0 -944 0 -972 21 -28 21 -73 80 -73 95 0 5 470 9 1045 9 575 0
1045 -4 1045 -9z"/>
<path d="M895 1311 c-22 -10 -58 -37 -80 -60 -21 -22 -45 -41 -53 -41 -8 0
-41 25 -74 55 -48 44 -66 55 -93 55 -23 0 -38 -6 -44 -18 -11 -21 3 -52 25
-52 8 0 41 -25 74 -55 93 -86 127 -86 220 0 33 30 67 55 75 55 9 0 37 -20 63
-44 58 -53 82 -66 122 -66 39 0 64 13 117 61 24 22 52 39 63 39 12 0 42 -22
70 -50 44 -45 53 -50 93 -50 44 0 101 31 135 73 8 9 29 21 47 27 38 13 50 33
35 61 -20 37 -75 21 -149 -45 -29 -25 -56 -46 -62 -46 -6 0 -27 17 -48 38 -54
55 -82 72 -122 72 -36 0 -93 -33 -133 -79 -29 -32 -63 -26 -113 20 -39 36 -98
69 -120 69 -4 0 -26 -9 -48 -19z"/>
<path d="M322 698 c-24 -24 -7 -68 28 -68 9 0 36 -21 60 -46 54 -55 92 -76
137 -76 40 0 66 16 126 77 60 61 81 60 156 -9 94 -86 146 -84 250 8 28 25 59
46 67 46 9 0 39 -24 68 -54 83 -86 137 -87 230 -5 73 66 91 66 159 1 86 -80
135 -78 236 12 28 25 60 46 71 46 23 0 43 32 34 54 -16 43 -90 21 -165 -49
-27 -25 -58 -45 -70 -45 -12 0 -36 16 -55 37 -49 53 -84 73 -129 73 -44 0 -67
-13 -132 -72 -57 -51 -82 -50 -128 6 -20 24 -52 52 -72 61 -50 24 -99 8 -169
-56 -30 -27 -63 -49 -74 -49 -11 0 -42 20 -70 45 -61 54 -99 75 -138 75 -31 0
-116 -51 -126 -75 -5 -15 -64 -55 -79 -55 -5 0 -34 24 -65 54 -80 75 -121 93
-150 64z"/>
</g>
</svg>
